# AST/ASF file generated using VICON BodyLanguage
# -----------------------------------------------
:version 1.10
:name VICON
:units
  mass 1.0
  length 0.45
  angle deg
:documentation
   .ast/.asf automatically generated from VICON data using
   VICON BodyBuilder and BodyLanguage model FoxedUp or BRILLIANT.MOD
:root
   order TX TY TZ RX RY RZ
   axis XYZ
   position 0 0 0  
   orientation 0 0 0 
:bonedata
  begin
     id 1 
     name lhipjoint
     direction 0.584852 -0.759097 0.285867 
     length 2.43633 
     axis 0 0 0  XYZ
  end
  begin
     id 2 
     name lfemur
     direction 0.34202 -0.939693 0  
     length 7.14704  
     axis 0 0 20  XYZ
    dof rx ry rz
    limits (-160.0 20.0)
           (-70.0 70.0)
           (-60.0 70.0)
  end
  begin
     id 3 
     name ltibia
     direction 0.342022 -0.939692 0   
     length 7.68483   
     axis 0 0 20   XYZ
    dof rx
    limits (-10.0 170.0)
  end
  begin
     id 4 
     name lfoot
     direction 0.0999605 -0.274639 0.956337   
     length 2.40452   
     axis -90 7.62852e-016 20   XYZ
    dof rx rz
    limits (-45.0 90.0)
           (-70.0 20.0)
  end
  begin
     id 5 
     name ltoes
     direction 1.53468e-011 -4.21881e-011 1   
     length 1.19837   
     axis -90 7.62852e-016 20   XYZ
    dof rx
    limits (-90.0 20.0)
  end
  begin
     id 6 
     name rhipjoint
     direction -0.569886 -0.769002 0.289597   
     length 2.40495  
     axis 0 0 0  XYZ 
  end
  begin
     id 7 
     name rfemur
     direction -0.34202 -0.939693 0   
     length 7.45086   
     axis 0 0 -20   XYZ
    dof rx ry rz
    limits (-160.0 20.0)
           (-70.0 70.0)
           (-70.0 60.0)
  end
  begin
     id 8 
     name rtibia
     direction -0.34202 -0.939693 0   
     length 7.76831   
     axis 0 0 -20   XYZ
    dof rx
    limits (-10.0 170.0)
 end
 begin
     id 9 
     name rfoot
     direction -0.0798572 -0.219406 0.97236   
     length 2.35911  
     axis -90 -7.62852e-016 -20   XYZ
    dof rx rz
    limits (-45.0 90.0)
           (-20.0 70.0)
  end
  begin
     id 10 
     name rtoes
     direction -1.53469e-011 -4.21728e-011 1   
     length 1.18261   
     axis -90 -7.62852e-016 -20   XYZ
    dof rx
    limits (-90.0 20.0)
  end
  begin
     id 11 
     name lowerback
     direction 0.0242088 0.999437 0.0232389   
     length 2.1561   
     axis 0 0 0   XYZ
    dof rx ry rz
    limits (-20.0 45.0)
           (-30.0 30.0)
           (-30.0 30.0)
  end
  begin
     id 12 
     name upperback
     direction -0.0356893 0.999013 -0.0264323   
     length 2.14431   
     axis 0 0 0   XYZ
    dof rx ry rz
    limits (-20.0 45.0)
           (-30.0 30.0)
           (-30.0 30.0)
  end
  begin
     id 13 
     name thorax
     direction -0.0472163 0.998194 -0.0371284   
     length 2.16169   
     axis 0 0 0   XYZ
    dof rx ry rz
    limits (-20.0 45.0)
           (-30.0 30.0)
           (-30.0 30.0)
  end
  begin
     id 14 
     name lowerneck
     direction 0.00863244 0.999921 0.00911972   
     length 1.58651   
     axis 0 0 0   XYZ
    dof rx ry rz
    limits (-20.0 45.0)
           (-30.0 30.0)
           (-30.0 30.0)
  end
  begin
     id 15 
     name upperneck
     direction 0.149523 0.979068 -0.138086   
     length 1.57486   
     axis 0 0 0   XYZ
    dof rx ry rz
    limits (-20.0 45.0)
           (-30.0 30.0)
           (-30.0 30.0)
  end
  begin
     id 16
     name head
     direction 0.0445219 0.997708 -0.0509576  
     length 1.6019  
     axis 0 0 0   XYZ
    dof rx ry rz
    limits (-20.0 45.0)
           (-30.0 30.0)
           (-30.0 30.0)
  end
  begin
     id 17 
     name lclavicle
     direction 0.911271 0.381667 -0.154644  
     length 3.80848  
     axis 0 0 0   XYZ
    dof ry rz
    limits (-20.0 10.0)
           (0.0 20.0)
  end
  begin
     id 18 
     name lhumerus
     direction 1 -4.49003e-011 2.1308e-027   
     length 5.19069   
     axis 180 -30 -90   XYZ
    dof rx ry rz
    limits (-60.0 90.0)
           (-90.0 90.0)
           (-90.0 90.0)
  end
  begin
     id 19
     name lradius
     direction 1 -4.48914e-011 4.01554e-027   
     length 3.30016   
     axis 180 -30 -90   XYZ
    dof rx
    limits (-10.0 170.0)
  end
  begin
     id 20
     name lwrist
     direction 1 -4.49003e-011 1.1934e-026   
     length 1.65008   
     axis -8.46377e-015 90 90   XYZ
    dof ry
    limits (-180.0 0.0)
 end
  begin
     id 21 
     name lhand
     direction 1 -4.49034e-011 2.38659e-026   
     length 0.707698   
     axis -1.52313e-014 90 90   XYZ
    dof rx rz
    limits (-90.0 90.0)
           (-45.0 45.0)
  end
  begin
     id 22 
     name lfingers
     direction 1 -4.48691e-011 4.77775e-026   
     length 0.570564   
     axis -3.04623e-014 90 90   XYZ
    dof rx
    limits (0.0 90.0)
  end
  begin
     id 23
     name lthumb
     direction 0.707107 -6.34832e-011 0.707107   
     length 0.819219   
     axis -90 45 -1.62303e-014   XYZ
    dof rx rz
    limits (-45.0 45.0)
           (-45.0 45.0)
  end
  begin
     id 24 
     name rclavicle
     direction -0.815579 0.573708 -0.0754329   
     length 3.54371  
     axis 0 0 0   XYZ 
    dof ry rz
    limits (-10.0 20.0)
           (-20.0 0.0)
  end
  begin
     id 25 
     name rhumerus
     direction -1 -4.48956e-011 3.05351e-028  
     length 5.23924   
     axis 180 30 90   XYZ
    dof rx ry rz
    limits (-90.0 60.0)
           (-90.0 90.0)
           (-90.0 90.0)
  end
  begin
     id 26 
     name rradius
     direction -1 -4.49013e-011 3.53849e-027   
     length 3.32953   
     axis 180 30 90   XYZ
    dof rx
    limits (-10.0 170.0)
  end
  begin
     id 27 
     name rwrist
     direction -1 -4.48901e-011 1.19374e-026   
     length 1.66477   
     axis -8.46377e-015 -90 -90   XYZ
    dof ry
    limits (-180.0 0.0)
  end
  begin
     id 28
     name rhand
     direction -1 -4.48877e-011 2.38764e-026   
     length 0.607414   
     axis -1.52313e-014 -90 -90   XYZ
    dof rx rz
    limits (-90.0 90.0)
           (-45.0 45.0)
  end
  begin
     id 29
     name rfingers
     direction -1 -4.48882e-011 4.77521e-026   
     length 0.489712   
     axis -3.04623e-014 -90 -90   XYZ
    dof rx
    limits (0.0 90.0)
  end
  begin
     id 30
     name rthumb
     direction -0.707107 -6.34974e-011 0.707107   
     length 0.703132   
     axis -90 -45 1.62303e-014   XYZ
    dof rx rz
    limits (-45.0 45.0)
           (-45.0 45.0)
  end
:hierarchy
  begin
    root lhipjoint rhipjoint lowerback
    lhipjoint lfemur
    lfemur ltibia
    ltibia lfoot
    lfoot ltoes
    rhipjoint rfemur
    rfemur rtibia
    rtibia rfoot
    rfoot rtoes
    lowerback upperback
    upperback thorax
    thorax lowerneck lclavicle rclavicle
    lowerneck upperneck
    upperneck head
    lclavicle lhumerus
    lhumerus lradius
    lradius lwrist
    lwrist lhand lthumb
    lhand lfingers
    rclavicle rhumerus
    rhumerus rradius
    rradius rwrist
    rwrist rhand rthumb
    rhand rfingers
  end

#!OML:ASF E:\VariousWalksJay\Project 1\Capture day 1\Session 1\Actor2.ASF
:FULLY-SPECIFIED
:DEGREES
294
root 17.429 14.3181 -6.12882 13.8569 -45.3364 -0.990687
lowerback 44.8973 -3.57282 1.98277
upperback 18.304 -4.96093 -2.14425
thorax -0.545905 -2.66192 -1.46513
lowerneck 2.97586 3.05508 -0.432856
upperneck -27.2912 3.86566 -0.665971
head -9.00304 1.77322 -0.454749
rclavicle 4.29375e-014 5.92378e-014
rhumerus -10.5745 31.4953 -70.8235
rradius 113.359
rwrist 1.01825
rhand -33.4211 -7.14226
rfingers 7.12502
rthumb -6.6207 -37.0188
lclavicle 4.29375e-014 5.92378e-014
lhumerus 59.8711 -3.83695 42.2132
lradius 83.7076
lwrist 52.5849
lhand -34.0161 13.763
lfingers 7.12502
lthumb -7.19515 43.6207
rfemur -89.5001 5.81985 18.5295
rtibia 84.1222
rfoot -20.2134 -5.99078
rtoes -30.1043
lfemur -62.391 8.9125 -36.3162
ltibia 78.9595
lfoot -32.9037 16.3597
ltoes -2.61743
295
root 17.3953 14.3062 -6.07079 13.6779 -45.2408 -0.8809
lowerback 44.8746 -3.59731 2.12722
upperback 18.4077 -4.94722 -2.26092
thorax -0.442147 -2.63723 -1.67151
lowerneck 2.9515 2.98814 -0.127532
upperneck -27.2781 3.79813 -0.699397
head -8.98603 1.713 -0.51168
rclavicle -8.90555e-014 -7.95139e-015
rhumerus -10.7373 31.2276 -71.0331
rradius 113.341
rwrist 1.07464
rhand -33.6273 -6.84161
rfingers 7.12502
rthumb -6.81979 -36.7118
lclavicle -8.90555e-014 -7.95139e-015
lhumerus 60.1561 -3.96927 41.9304
lradius 83.6786
lwrist 52.5894
lhand -33.8608 13.8933
lfingers 7.12502
lthumb -7.0452 43.7561
rfemur -89.1503 5.82139 18.7448
rtibia 82.2085
rfoot -20.1591 -6.04691
rtoes -29.7612
lfemur -62.0442 8.81031 -36.3896
ltibia 79.1566
lfoot -33.2563 16.4374
ltoes -2.75727
296
root 17.3602 14.2939 -6.01072 13.5064 -45.0851 -0.707603
lowerback 44.8141 -3.64139 2.25121
upperback 18.4577 -4.9545 -2.33855
thorax -0.385644 -2.62439 -1.81733
lowerneck 2.93393 2.91971 0.10266
upperneck -27.1875 3.72313 -0.719849
head -8.94531 1.65734 -0.550232
rclavicle 4.29375e-014 2.62396e-014
rhumerus -10.9814 30.9121 -71.2116
rradius 113.39
rwrist 1.3706
rhand -33.6214 -7.21563
rfingers 7.12502
rthumb -6.81407 -37.086
lclavicle 4.29375e-014 2.62396e-014
lhumerus 60.3685 -4.1345 41.6969
lradius 83.6401
lwrist 52.5984
lhand -33.8645 13.8759
lfingers 7.12502
lthumb -7.04876 43.7386
rfemur -88.8187 5.71355 18.9468
rtibia 80.3007
rfoot -20.0745 -6.02828
rtoes -29.3431
lfemur -61.7191 8.60363 -36.494
ltibia 79.3337
lfoot -33.5613 16.5318
ltoes -3.0338
297
root 17.3206 14.2868 -5.95533 13.3105 -45.0236 -0.503062
lowerback 44.7135 -3.56797 2.22149
upperback 18.5327 -4.8867 -2.38974
thorax -0.277968 -2.58819 -1.88907
lowerneck 2.91479 2.84443 0.307584
upperneck -27.121 3.63836 -0.724984
head -8.91407 1.59751 -0.578687
rclavicle 1.35174e-014 -4.47266e-014
rhumerus -11.2169 30.6386 -71.3804
rradius 113.317
rwrist 1.44769
rhand -33.751 -7.07621
rfingers 7.12502
rthumb -6.93921 -36.9425
lclavicle 1.35174e-014 -4.47266e-014
lhumerus 60.5782 -4.31825 41.4084
lradius 83.6404
lwrist 52.6547
lhand -33.926 13.9476
lfingers 7.12502
lthumb -7.10814 43.8082
rfemur -88.4206 5.72655 19.109
rtibia 78.3449
rfoot -19.8834 -6.07491
rtoes -29.2352
lfemur -61.3821 8.51418 -36.6198
ltibia 79.4901
lfoot -33.868 16.5968
ltoes -3.23384
298
root 17.2851 14.2802 -5.89232 13.1455 -44.7774 -0.341278
lowerback 44.6005 -3.66784 2.44307
upperback 18.5881 -4.91984 -2.45464
thorax -0.206929 -2.58105 -2.06305
lowerneck 2.92333 2.74843 0.539738
upperneck -27.0527 3.52091 -0.753476
head -8.88673 1.52174 -0.617533
rclavicle -7.15625e-014 5.725e-014
rhumerus -11.5364 30.3418 -71.6053
rradius 113.192
rwrist 1.52224
rhand -33.9205 -6.99638
rfingers 7.12502
rthumb -7.10287 -36.8572
lclavicle -7.15625e-014 5.725e-014
lhumerus 60.7824 -4.59067 41.1441
lradius 83.6239
lwrist 52.6581
lhand -33.9041 14.0019
lfingers 7.12502
lthumb -7.08699 43.8632
rfemur -87.9665 5.50492 19.3587
rtibia 76.3792
rfoot -19.7011 -6.04466
rtoes -28.9452
lfemur -60.9891 8.19332 -36.6931
ltibia 79.6119
lfoot -34.1471 16.7676
ltoes -3.49585
299
root 17.2438 14.273 -5.83403 13.0487 -44.6343 -0.264338
lowerback 44.4506 -3.68405 2.55742
upperback 18.6639 -4.90252 -2.52232
thorax -0.0965754 -2.55799 -2.20746
lowerneck 2.88121 2.67705 0.773875
upperneck -26.967 3.45004 -0.735813
head -8.84505 1.46351 -0.643872
rclavicle -2.54444e-014 7.15625e-015
rhumerus -11.8127 30.0924 -71.8597
rradius 113.039
rwrist 1.576
rhand -34.0235 -6.91627
rfingers 7.12502
rthumb -7.20222 -36.7737
lclavicle -2.54444e-014 7.15625e-015
lhumerus 60.9412 -4.83757 40.9214
lradius 83.5468
lwrist 52.499
lhand -33.6513 13.9999
lfingers 7.12502
lthumb -6.84294 43.8693
rfemur -87.432 5.44404 19.742
rtibia 74.3328
rfoot -19.3184 -6.54779
rtoes -30.2673
lfemur -60.6342 7.97864 -36.6896
ltibia 79.7327
lfoot -34.4277 16.8832
ltoes -3.65333
300
root 17.2028 14.2725 -5.77223 12.8447 -44.5347 -0.0577547
lowerback 44.345 -3.65163 2.57339
upperback 18.714 -4.86198 -2.57062
thorax -0.0181741 -2.53109 -2.28773
lowerneck 2.8576 2.58711 0.965198
upperneck -26.9158 3.3423 -0.734055
head -8.81995 1.39284 -0.665984
rclavicle -6.20208e-014 7.15625e-015
rhumerus -12.1783 29.8177 -72.0845
rradius 112.861
rwrist 1.57996
rhand -34.081 -6.7586
rfingers 7.12502
rthumb -7.25774 -36.6141
lclavicle -6.20208e-014 7.15625e-015
lhumerus 61.0842 -5.19585 40.7126
lradius 83.5157
lwrist 52.4656
lhand -33.6483 14.0335
lfingers 7.12502
lthumb -6.84009 43.903
rfemur -86.8876 5.35565 19.9532
rtibia 72.3392
rfoot -19.1009 -6.5985
rtoes -30.0831
lfemur -60.1934 7.80187 -36.8069
ltibia 79.7851
lfoot -34.7309 17.0467
ltoes -3.8373
301
root 17.1609 14.2735 -5.71102 12.6474 -44.3717 0.165675
lowerback 44.1674 -3.66441 2.61997
upperback 18.7771 -4.8641 -2.65018
thorax 0.0860005 -2.51951 -2.40404
lowerneck 2.85608 2.50159 1.25243
upperneck -26.8749 3.24808 -0.751649
head -8.80064 1.32075 -0.712666
rclavicle -2.14687e-014 3.8763e-014
rhumerus -12.5382 29.5393 -72.4078
rradius 112.588
rwrist 1.60491
rhand -34.1758 -6.54682
rfingers 7.12502
rthumb -7.34921 -36.3992
lclavicle -2.14687e-014 3.8763e-014
lhumerus 61.1938 -5.59916 40.4139
lradius 83.5271
lwrist 52.4848
lhand -33.7401 13.9568
lfingers 7.12502
lthumb -6.92873 43.8234
rfemur -86.3409 5.21854 20.1439
rtibia 70.3454
rfoot -18.911 -6.61838
rtoes -29.6954
lfemur -59.7382 7.53918 -36.9139
ltibia 79.8008
lfoot -35.0182 17.2026
ltoes -4.04028
302
root 17.1177 14.2777 -5.64726 12.5897 -44.2237 0.141943
lowerback 44.0307 -3.70098 2.8065
upperback 18.836 -4.84277 -2.69797
thorax 0.173725 -2.49112 -2.5638
lowerneck 2.80265 2.40956 1.43799
upperneck -26.8213 3.14222 -0.719791
head -8.77065 1.24827 -0.72332
rclavicle -1.59028e-014 4.63168e-014
rhumerus -12.9327 29.2811 -72.7039
rradius 112.323
rwrist 1.68732
rhand -34.2198 -6.30414
rfingers 7.12502
rthumb -7.39176 -36.155
lclavicle -1.59028e-014 4.63168e-014
lhumerus 61.2679 -5.97603 40.1265
lradius 83.5349
lwrist 52.5394
lhand -33.6598 13.9714
lfingers 7.12502
lthumb -6.85118 43.8406
rfemur -85.6985 5.15219 20.5142
rtibia 68.3514
rfoot -18.7431 -6.67891
rtoes -29.4038
lfemur -59.2602 7.36796 -36.8389
ltibia 79.8046
lfoot -35.266 17.3579
ltoes -4.22374
303
root 17.0737 14.2857 -5.58162 12.4334 -44.0693 0.30733
lowerback 43.8271 -3.71082 2.87298
upperback 18.8932 -4.83397 -2.75405
thorax 0.28038 -2.47467 -2.67011
lowerneck 2.76909 2.3249 1.69656
upperneck -26.7845 3.04253 -0.742777
head -8.74811 1.17674 -0.766133
rclavicle 1.43125e-014 -8.32908e-014
rhumerus -13.4113 29.0085 -73.0232
rradius 112.054
rwrist 1.869
rhand -34.3712 -6.23942
rfingers 7.12502
rthumb -7.53789 -36.0851
lclavicle 1.43125e-014 -8.32908e-014
lhumerus 61.3418 -6.36876 39.7497
lradius 83.5809
lwrist 52.687
lhand -33.7445 13.9615
lfingers 7.12502
lthumb -6.9329 43.828
rfemur -85.086 5.01517 20.7334
rtibia 66.3883
rfoot -18.6376 -6.78451
rtoes -29.3185
lfemur -58.7407 7.11644 -36.9033
ltibia 79.7579
lfoot -35.532 17.5884
ltoes -4.58418
304
root 17.0265 14.2939 -5.51778 12.3801 -43.8804 0.338985
lowerback 43.6276 -3.73175 3.00356
upperback 18.9208 -4.8108 -2.78089
thorax 0.353963 -2.44907 -2.78121
lowerneck 2.73539 2.23801 1.85882
upperneck -26.699 2.95091 -0.675682
head -8.71215 1.11101 -0.76226
rclavicle -8.74653e-015 -8.68689e-014
rhumerus -13.9555 28.751 -73.401
rradius 111.739
rwrist 2.12001
rhand -34.5385 -5.97604
rfingers 7.12502
rthumb -7.69934 -35.8159
lclavicle -8.74653e-015 -8.68689e-014
lhumerus 61.3892 -6.88005 39.4985
lradius 83.5869
lwrist 52.6444
lhand -33.6732 13.9228
lfingers 7.12502
lthumb -6.86408 43.7915
rfemur -84.4453 4.89469 21.0497
rtibia 64.4152
rfoot -18.5217 -6.84392
rtoes -28.8513
lfemur -58.2607 6.88641 -36.8477
ltibia 79.7212
lfoot -35.7598 17.7394
ltoes -4.83082
305
root 16.9791 14.3035 -5.44937 12.2492 -43.7075 0.453258
lowerback 43.4337 -3.73056 3.0735
upperback 18.9497 -4.7839 -2.80029
thorax 0.431933 -2.42613 -2.85532
lowerneck 2.70356 2.14843 2.09175
upperneck -26.622 2.84431 -0.685178
head -8.67737 1.03856 -0.795403
rclavicle 1.51076e-014 1.05356e-014
rhumerus -14.5002 28.4716 -73.7515
rradius 111.387
rwrist 2.44684
rhand -34.6773 -5.6283
rfingers 7.12502
rthumb -7.83336 -35.4632
lclavicle 1.51076e-014 1.05356e-014
lhumerus 61.4239 -7.43562 39.2591
lradius 83.6432
lwrist 52.6772
lhand -33.8124 13.918
lfingers 7.12502
lthumb -6.99843 43.7823
rfemur -83.7809 4.75641 21.2682
rtibia 62.4692
rfoot -18.4154 -6.84588
rtoes -28.473
lfemur -57.7184 6.71379 -36.8823
ltibia 79.6392
lfoot -35.9702 17.8486
ltoes -5.23757
